# xmcd CD database file
#
# Track frame offsets:
#	150
#	18612
#	35022
#	55492
#	85205
#
# Disc length: 1382 seconds
#
# Revision: 0
# Processed by: cddbd v1.5.1PL2 Copyright (c) Steve Scherf et al.
# Submitted via: CDex 1.51
#
DISCID=3e056405
DTITLE=吉川晃司 - PANDORA
DYEAR=2002
DGENRE=Rock
TTITLE0=パンドーラ
TTITLE1=ナイフ 〜survival version〜
TTITLE2=パンドーラ 〜Darka mix by Kenji Jammer〜
TTITLE3=パンドーラ (Original Instrumental)
TTITLE4=Data Track
EXTD=YEAR: 2002
EXTT0=
EXTT1=
EXTT2=
EXTT3=
EXTT4=
PLAYORDER=
